<mxfile host="app.diagrams.net" modified="2023-07-21T15:54:13.632Z" agent="Mozilla/5.0 (X11; Linux x86_64) AppleWebKit/537.36 (KHTML, like Gecko) Chrome/114.0.0.0 Safari/537.36" etag="oViTJOJL0CIQu0QbDpSJ" version="21.6.5" type="github">
  <diagram name="Page-1" id="DFhGEy5XbXLeYATIB-o9">
    <mxGraphModel dx="3715" dy="2245" grid="1" gridSize="10" guides="1" tooltips="1" connect="1" arrows="1" fold="1" page="1" pageScale="1" pageWidth="1500" pageHeight="1500" math="0" shadow="0">
      <root>
        <mxCell id="0" />
        <mxCell id="1" parent="0" />
      </root>
    </mxGraphModel>
  </diagram>
</mxfile>
